<svg width="100" height="100" viewBox="0 0 100 100" fill="none" xmlns="http://www.w3.org/2000/svg">
<circle cx="50" cy="50" r="50" fill="#E47848"/>
<path d="M37.1882 66.5695C35 63.4819 35 59.9151 35 56.3749C39.4027 59.0367 43.7791 61.6985 45.9936 64.8128L46.8636 66.3033V60.2345C42.9091 57.8389 39.1655 55.3901 37.1882 52.5952C35 49.5076 35 45.9408 35 42.4006C39.4027 45.0624 43.7791 47.7242 45.9936 50.8385L46.8636 52.3823V46.2602C42.9091 43.8646 39.1655 41.4158 37.1882 38.6209C35 35.5333 35 31.9665 35 28.4263C39.4027 31.0881 43.7791 33.7499 45.9936 36.8642C46.2573 37.2368 46.4945 37.6361 46.7055 38.062C46.2573 36.4117 45.9673 34.8678 45.9409 33.2708C45.9145 29.2515 47.6545 25.1257 49.3945 21C51.2136 24.9394 53.0327 28.9055 53.0591 32.9247C53.0855 34.6017 52.7955 36.3052 52.3209 37.9821C52.5318 37.6095 52.7427 37.2368 53.0064 36.8642C55.2209 33.7499 59.5973 31.0881 64 28.4263C64 31.9665 64 35.5333 61.8118 38.6209C59.8345 41.4158 56.0909 43.8646 52.1364 46.2602V52.3823L53.0064 50.8385C55.2209 47.7242 59.5973 45.0624 64 42.4006C64 45.9408 64 49.5076 61.8118 52.5952C59.8345 55.3901 56.0909 57.8389 52.1364 60.2345V66.3033L53.0064 64.8128C55.2209 61.6985 59.5973 59.0367 64 56.3749C64 59.9151 64 63.4819 61.8118 66.5695C59.8345 69.3644 56.0909 71.8132 52.1364 74.2088V79H46.8636V74.2088C42.9091 71.8132 39.1655 69.3644 37.1882 66.5695Z" fill="white"/>
</svg>
