<svg width="100" height="100" viewBox="0 0 100 100" fill="none" xmlns="http://www.w3.org/2000/svg">
<circle cx="50" cy="50" r="50" fill="#E89246"/>
<path d="M38 75C33.2261 75 28.6477 73.1408 25.2721 69.8313C21.8964 66.5218 20 62.0332 20 57.3529C20 47.6059 29 30.8824 38 30.8824C47 30.8824 56 47.6059 56 57.3529C56 62.0332 54.1036 66.5218 50.7279 69.8313C47.3523 73.1408 42.7739 75 38 75ZM57.836 68.6441C60.5319 65.4757 62.0059 61.479 62 57.3529C62 49.9471 56.804 38.5147 50.36 33.45C53.639 28.6088 57.821 25 62 25C71 25 80 41.7235 80 51.4706C80.0008 54.1356 79.3859 56.7662 78.2015 59.165C77.017 61.5637 75.2938 63.6683 73.1611 65.3208C71.0284 66.9733 68.5417 68.1308 65.8875 68.7063C63.2333 69.2819 60.4806 69.2606 57.836 68.6441Z" fill="white"/>
</svg>
