<svg width="100" height="100" viewBox="0 0 100 100" fill="none" xmlns="http://www.w3.org/2000/svg">
<circle cx="50" cy="50" r="50" fill="#2E4197"/>
<path d="M59.9313 50C59.9297 45.258 61.1839 40.6001 63.5662 36.5L64.5187 34.8425C62.5221 34.3673 60.4877 34.0683 58.4388 33.9487C55.6963 31.8362 51.6087 29.33 46.8962 28.5325L44 28L45.6712 35.7325C40.4625 37.5 35.8675 41.09 32.8263 43.56C32.2379 43.0675 31.6221 42.5862 30.9788 42.1162C26.015 38.4912 20.6538 38.1412 20.4288 38.1287L18 38L18.3338 40.4137C18.37 40.6637 19.1825 46.005 22.29 49.9788C19.1825 53.9538 18.375 59.2912 18.3338 59.545L18 62L20.4288 61.83C20.6538 61.8175 26.015 61.4687 30.9788 57.8425C31.6104 57.3817 32.2171 56.9079 32.7987 56.4212C35.845 58.9 40.4412 62.4962 45.6562 64.2637L44 72L46.8962 71.4725C51.5825 70.68 55.6563 68.1725 58.3963 66.0575C60.4737 65.9373 62.5367 65.6349 64.5612 65.1538L63.5725 63.5062C61.1873 59.4047 59.9309 54.7447 59.9313 50Z" fill="white"/>
<path d="M80.4488 45.7187C79.7175 44.4837 78.3813 42.6062 76.175 40.6837C73.8784 38.7058 71.2562 37.1409 68.425 36.0587L67.0288 38.5C65.0018 41.9902 63.9333 45.9542 63.9313 49.9903C63.9293 54.0265 64.994 57.9915 67.0175 61.4837L68.4863 63.93C71.2879 62.8608 73.8849 61.3179 76.1638 59.3687C80.1313 55.9337 82 51.625 82 50C82 48.4612 81 46.6575 80.4488 45.7187ZM70 50C69.6045 50 69.2178 49.8827 68.8889 49.6629C68.56 49.4431 68.3036 49.1308 68.1523 48.7653C68.0009 48.3999 67.9613 47.9977 68.0384 47.6098C68.1156 47.2218 68.3061 46.8655 68.5858 46.5858C68.8655 46.306 69.2219 46.1156 69.6098 46.0384C69.9978 45.9612 70.3999 46.0008 70.7654 46.1522C71.1308 46.3036 71.4432 46.5599 71.663 46.8888C71.8827 47.2177 72 47.6044 72 48C72 48.5304 71.7893 49.0391 71.4142 49.4142C71.0392 49.7893 70.5305 50 70 50Z" fill="white"/>
</svg>
