<svg width="100" height="100" viewBox="0 0 100 100" fill="none" xmlns="http://www.w3.org/2000/svg">
<circle cx="50" cy="50" r="50" fill="#663823"/>
<path d="M38.9698 19V21.7761H56.0255V19H38.9698ZM41.9028 24.5523C43.9598 31.984 43.9262 41.1326 38.7226 48.6295L38.6867 48.6813L38.6464 48.7295C32.6544 55.8819 31.5516 62.1872 32.1398 67.7455C32.6824 72.8743 34.7288 77.2957 36.0672 81H58.9281C60.2665 77.2957 62.3129 72.8743 62.8556 67.7455C63.4437 62.1871 62.3413 55.8817 56.3491 48.7293L56.3014 48.6722L56.2601 48.6105C51.3806 41.3306 51.0736 32.0435 53.1017 24.5523H41.9023H41.9028ZM55.9238 24.6992C55.6671 25.5875 55.4517 26.4871 55.2783 27.3952C58.4774 28.0904 60.5568 29.3855 61.9158 30.9903C63.5904 32.9678 64.2473 35.5397 64.2075 38.4235C64.1526 42.3841 62.698 46.8284 61.0346 50.3547C61.6728 51.3194 62.2363 52.2764 62.7301 53.2234C64.8813 49.2296 66.9249 43.7528 66.9981 38.4618C67.0441 35.1281 66.2631 31.8152 64.0502 29.2018C62.2603 27.088 59.5829 25.5134 55.924 24.6991L55.9238 24.6992Z" fill="white"/>
</svg>
