<svg width="20" height="20" viewBox="0 0 20 20" fill="none" xmlns="http://www.w3.org/2000/svg">
<path fill-rule="evenodd" clip-rule="evenodd" d="M0 10.0173C0 3.64636 3.57182 0.04 9.99455 0C16.34 0.0409091 19.8891 3.58727 20 9.98454C19.8791 16.6027 16.5164 19.9618 10.0055 20C3.57545 19.9627 0 16.2818 0 10.0173ZM10.9091 9.09089H12.5673C13.07 9.09089 13.4764 9.49817 13.4764 9.99999C13.4764 10.5018 13.07 10.9091 12.5673 10.9091H10.9091V12.5682C10.9091 13.07 10.5027 13.4773 9.99999 13.4773C9.49726 13.4773 9.0909 13.07 9.0909 12.5682V10.9091H7.43271C6.92999 10.9091 6.52362 10.5018 6.52362 9.99999C6.52362 9.49817 6.92999 9.09089 7.43271 9.09089H9.0909V7.4318C9.0909 6.92999 9.49726 6.52271 9.99999 6.52271C10.5027 6.52271 10.9091 6.92999 10.9091 7.4318V9.09089Z" fill="#E50051"/>
</svg>
