<svg width="8" height="9" viewBox="0 0 8 9" fill="none" xmlns="http://www.w3.org/2000/svg">
<path d="M6.95398 3.45425H5.04603V1.54575C5.04603 0.968497 4.57845 0.5 4 0.5C3.42155 0.5 2.95398 0.968497 2.95398 1.54575V3.45425H1.04603C0.467573 3.45425 0 3.92274 0 4.5C0 5.07725 0.467573 5.54575 1.04603 5.54575H2.95398V7.45425C2.95398 8.0315 3.42155 8.5 4 8.5C4.57845 8.5 5.04603 8.0315 5.04603 7.45425V5.54575H6.95398C7.53243 5.54575 8 5.07725 8 4.5C8 3.92274 7.53243 3.45425 6.95398 3.45425Z" fill="#868686"/>
</svg>
