<svg width="11" height="12" viewBox="0 0 11 12" fill="none" xmlns="http://www.w3.org/2000/svg">
<path d="M10.5 2H7.63636V1C7.63636 0.4485 7.20825 0 6.68182 0H3.81818C3.29175 0 2.86364 0.4485 2.86364 1V2H0V3H0.784636L1.59743 10.6655C1.67809 11.426 2.28995 12 3.02066 12H7.4612C8.19191 12 8.80377 11.4265 8.88396 10.6655L9.69675 3H10.4995L10.5 2ZM3.81818 1H6.68182V2H3.81818V1ZM7.93514 10.555C7.90841 10.8085 7.70461 11 7.46073 11H3.02066C2.77725 11 2.57298 10.8085 2.54625 10.555L1.74491 3H8.73695L7.93561 10.555H7.93514ZM3.36143 8.2715L4.57514 7L3.36143 5.7285L4.0363 5.0215L5.25 6.293L6.4637 5.0215L7.13857 5.7285L5.92486 7L7.13857 8.2715L6.4637 8.9785L5.25 7.707L4.0363 8.9785L3.36143 8.2715Z" fill="white"/>
</svg>
