<svg width="14" height="14" viewBox="0 0 14 14" fill="none" xmlns="http://www.w3.org/2000/svg">
<path d="M4.37482 7.58333C5.82201 7.58333 6.99971 6.40558 6.99971 4.95833C6.99971 3.51108 5.82201 2.33333 4.37482 2.33333C2.92763 2.33333 1.74993 3.51108 1.74993 4.95833C1.74993 6.40558 2.92763 7.58333 4.37482 7.58333ZM4.37482 2.91667C5.5006 2.91667 6.4164 3.8325 6.4164 4.95833C6.4164 6.08417 5.5006 7 4.37482 7C3.24903 7 2.33324 6.08417 2.33324 4.95833C2.33324 3.8325 3.24903 2.91667 4.37482 2.91667ZM8.74964 11.375V14H8.16633V11.375C8.16633 10.2492 7.25053 9.33333 6.12474 9.33333H2.62489C1.4991 9.33333 0.583309 10.2492 0.583309 11.375V14H0V11.375C0 9.92775 1.1777 8.75 2.62489 8.75H6.12474C7.57193 8.75 8.74964 9.92775 8.74964 11.375ZM10.2079 5.25C11.6551 5.25 12.8328 4.07225 12.8328 2.625C12.8328 1.17775 11.6551 0 10.2079 0C8.76072 0 7.58302 1.17775 7.58302 2.625C7.58302 4.07225 8.76072 5.25 10.2079 5.25ZM10.2079 0.583333C11.3337 0.583333 12.2495 1.49917 12.2495 2.625C12.2495 3.75083 11.3337 4.66667 10.2079 4.66667C9.08212 4.66667 8.16633 3.75083 8.16633 2.625C8.16633 1.49917 9.08212 0.583333 10.2079 0.583333ZM13.9994 9.04167V11.6667H13.4161V9.04167C13.4161 7.91583 12.5003 7 11.3745 7H7.87467C7.76151 7 7.65243 7.01575 7.54452 7.03325C7.67226 6.839 7.78309 6.63308 7.87409 6.41667C7.87409 6.41667 7.87409 6.41667 7.87526 6.41667H11.3751C12.8223 6.41667 13.9994 7.59442 13.9994 9.04167Z" fill="#FF9F06"/>
</svg>
