<svg width="13" height="12" viewBox="0 0 13 12" fill="none" xmlns="http://www.w3.org/2000/svg">
<path fill-rule="evenodd" clip-rule="evenodd" d="M9.38593 0C8.91168 0 8.44201 0.0979435 8.00374 0.288302C7.5655 0.47865 7.16715 0.757709 6.83153 1.10967L6.49984 1.45736L6.16816 1.10967C5.49025 0.399058 4.57136 0.000326821 3.61376 0.000326846C2.65616 0.000326846 1.73727 0.399058 1.05936 1.10967C0.381368 1.82038 0 2.78488 0 3.79116C0 4.79743 0.381368 5.76194 1.05936 6.47264L6.2135 11.8754C6.37194 12.0415 6.62775 12.0415 6.78619 11.8754L11.9403 6.47271C12.276 6.12089 12.5426 5.70295 12.7245 5.24285C12.9063 4.7827 13 4.2894 13 3.79116C13 3.29291 12.9063 2.79961 12.7245 2.33947C12.5426 1.87939 12.2761 1.46155 11.9404 1.10974C11.6048 0.757747 11.2064 0.478663 10.7681 0.288302C10.3298 0.0979435 9.86018 0 9.38593 0Z" fill="#E50051"/>
</svg>
