<svg width="16" height="16" viewBox="0 0 16 16" fill="none" xmlns="http://www.w3.org/2000/svg">
<path d="M10.0247 16C9.336 16 8.64667 15.738 8.122 15.2133C7.61333 14.7052 7.33333 14.0292 7.33333 13.3098C7.33333 12.5904 7.61333 11.915 8.122 11.4063L10.9307 8.59805C11.1913 8.33736 11.6127 8.33736 11.8733 8.59805C12.134 8.85874 12.134 9.28011 11.8733 9.5408L9.06467 12.349C8.808 12.6057 8.66667 12.9471 8.66667 13.3098C8.66667 13.6725 8.808 14.0138 9.06467 14.2705C9.59533 14.7999 10.4567 14.7992 10.986 14.2705L14.566 10.6902C14.7007 10.5555 14.7007 10.3355 14.566 10.2009C14.436 10.0708 14.208 10.0702 14.0767 10.2009L11.1387 13.1391C10.878 13.3998 10.4567 13.3998 10.196 13.1391C9.93533 12.8784 9.93533 12.457 10.196 12.1963L13.134 9.2581C13.768 8.62472 14.8733 8.62339 15.5087 9.2581C16.1627 9.91283 16.1627 10.9789 15.5087 11.633L11.9287 15.2133C11.404 15.738 10.7147 16 10.0253 16H10.0247ZM6.44 8.27002C6.1 8.09134 5.79667 7.84532 5.52533 7.57396L0.197333 2.24485C0.078 2.58755 0 2.95025 0 3.33361V9.33411C0 11.1749 1.49267 12.6677 3.33333 12.6677H6.05533C6.188 11.837 6.57267 11.0696 7.17933 10.4629L9.20533 8.4367C8.36667 8.76206 7.40267 8.77407 6.44067 8.27002H6.44ZM15.8027 2.24485C15.922 2.58755 16 2.95025 16 3.33361V7.954C15.1173 7.36928 13.9687 7.29261 13.0193 7.73531L12.942 7.80865C12.9 7.75731 12.8627 7.70198 12.8153 7.65464C12.2987 7.13793 11.57 6.97125 10.9093 7.13859L15.8027 2.24485ZM15.0967 1.06542L9.414 6.74856C9.036 7.12593 8.518 7.31461 7.99933 7.31528C7.48133 7.31528 6.96267 7.12659 6.58467 6.74856L0.903333 1.06476C1.512 0.413368 2.37133 0 3.33333 0H12.6667C13.6287 0 14.4887 0.413368 15.0967 1.06476V1.06542Z" fill="#E50051"/>
</svg>
