<svg width="19" height="19" viewBox="0 0 19 19" fill="none" xmlns="http://www.w3.org/2000/svg">
<path d="M12.4347 7.68471L10.6194 9.5L12.4347 11.3153C12.7443 11.6248 12.7443 12.1252 12.4347 12.4347C12.2803 12.5891 12.0777 12.6667 11.875 12.6667C11.6723 12.6667 11.4697 12.5891 11.3153 12.4347L9.5 10.6194L7.68471 12.4347C7.53033 12.5891 7.32767 12.6667 7.125 12.6667C6.92233 12.6667 6.71967 12.5891 6.56529 12.4347C6.25575 12.1252 6.25575 11.6248 6.56529 11.3153L8.38058 9.5L6.56529 7.68471C6.25575 7.37517 6.25575 6.87483 6.56529 6.56529C6.87483 6.25575 7.37517 6.25575 7.68471 6.56529L9.5 8.38058L11.3153 6.56529C11.6248 6.25575 12.1252 6.25575 12.4347 6.56529C12.7443 6.87483 12.7443 7.37517 12.4347 7.68471ZM19 9.5C19 14.7385 14.7385 19 9.5 19C4.26154 19 0 14.7385 0 9.5C0 4.26154 4.26154 0 9.5 0C14.7385 0 19 4.26154 19 9.5ZM17.4167 9.5C17.4167 5.13475 13.8653 1.58333 9.5 1.58333C5.13475 1.58333 1.58333 5.13475 1.58333 9.5C1.58333 13.8653 5.13475 17.4167 9.5 17.4167C13.8653 17.4167 17.4167 13.8653 17.4167 9.5Z" fill="white"/>
</svg>
