<svg width="20" height="20" viewBox="0 0 20 20" fill="none" xmlns="http://www.w3.org/2000/svg">
<path d="M10 0C4.4786 0 0 4.4786 0 10C0 15.5214 4.4786 20 10 20C15.5214 20 20 15.5214 20 10C20 4.4786 15.5214 0 10 0ZM13.9361 5.04521H12.7667C11.6154 5.04521 11.2538 5.76251 11.2538 6.49789V8.2399H13.8276L13.4177 10.9222H11.2538V17.4141H8.3484V10.9222H5.99156V8.2399H8.3484V6.1965C8.3484 3.8698 9.73478 2.5859 11.8565 2.5859C12.8752 2.5859 13.9361 2.76673 13.9361 2.76673V5.05124V5.04521Z" fill="white"/>
</svg>
