<svg width="20" height="20" viewBox="0 0 20 20" fill="none" xmlns="http://www.w3.org/2000/svg">
<path d="M16.5962 3.40383C14.7597 1.56785 12.3186 0.556702 9.72165 0.556702C7.12465 0.556702 4.68361 1.56785 2.84713 3.40383C1.01115 5.24031 0 7.68135 0 10.2784C0 12.8753 1.01115 15.3164 2.84713 17.1529C4.68361 18.9888 7.12465 20 9.72165 20C12.3186 20 14.7597 18.9888 16.5962 17.1529C18.4321 15.3164 19.4433 12.8753 19.4433 10.2784C19.4433 7.68135 18.4321 5.24031 16.5962 3.40383ZM9.72165 19.2405C4.77981 19.2405 0.759504 15.2202 0.759504 10.2784C0.759504 5.33651 4.77981 1.31621 9.72165 1.31621C14.6635 1.31621 18.6838 5.33651 18.6838 10.2784C18.6838 15.2202 14.6635 19.2405 9.72165 19.2405Z" fill="#E50051"/>
<path d="M7.69547 7.90683C7.83159 7.48344 8.0238 7.09357 8.24842 6.72306C8.51814 6.30034 8.78848 5.88131 9.07556 5.56234C9.3193 5.30105 9.5825 5.06452 9.9293 4.94021C10.1522 4.80365 10.3751 4.78041 10.598 4.78381C10.8616 4.83638 11.1165 4.9944 11.3447 5.15276C11.5966 5.38055 11.7268 5.55447 11.8202 5.71211C12.0061 6.04909 12.1909 6.38607 12.2901 6.72306L12.5097 7.55775C12.5607 7.88212 12.6117 8.30345 12.6627 8.75042V9.19041L12.0458 9.13809C12.0049 9.13783 11.9637 9.13745 11.9226 9.13708C11.626 9.13436 11.3294 9.13164 11.1242 9.17439C10.7983 9.1844 10.5304 9.29527 10.2624 9.40614C10.2054 9.42974 10.1483 9.45335 10.0907 9.47598L9.55012 9.83054L9.01917 10.2988L8.6056 9.30658C8.53048 9.13002 8.40341 8.90173 8.23971 8.63695L8.17983 8.55524C8.04362 8.36927 7.90736 8.18323 7.69547 7.90683Z" fill="white"/>
<path d="M3.63214 9.6801L3.44438 10.5059L3.38147 11.3832L3.39744 12.0486L3.47568 12.4849L3.71037 13.077C3.84672 13.3211 4.01981 13.5652 4.21106 13.8093L4.68046 14.1366L5.29067 14.4326L5.94782 14.4949C6.01831 14.4793 6.09116 14.4778 6.17171 14.4762C6.27025 14.4742 6.38033 14.4719 6.51176 14.4432L7.02743 14.308L7.4186 14.0586L7.74717 13.7782L8.01316 13.4821L8.26351 13.0458L8.37303 12.703L8.45127 12.329L8.51385 11.9395V11.5188L8.46691 11.1136L8.31045 10.4436L8.07575 9.78918L7.8567 9.29055L7.60635 8.86984C7.59264 8.84775 7.57899 8.82562 7.56534 8.80348C7.44823 8.61354 7.33112 8.4236 7.16825 8.26214L6.7458 7.81026L6.72894 7.79756C6.59554 7.69702 6.46214 7.59648 6.29205 7.5142C6.18166 7.46008 6.0621 7.40687 5.88704 7.35918C5.71954 7.32295 5.55205 7.31387 5.38455 7.3428L4.9308 7.52979C4.90593 7.55026 4.88065 7.57064 4.85538 7.59101C4.73625 7.68703 4.61713 7.78304 4.54077 7.88971L4.19542 8.3301C4.06393 8.52704 3.9853 8.7112 3.91295 8.88064C3.88706 8.94128 3.86197 9.00004 3.83555 9.05682L3.63214 9.6801Z" fill="white"/>
<path d="M12.701 9.77424L13.5423 9.8947L14.1824 10.0469C14.2413 10.0686 14.3021 10.0889 14.3649 10.1098C14.5403 10.1681 14.731 10.2315 14.9387 10.3464L15.4075 10.6544C15.5204 10.7217 15.6262 10.8324 15.7321 10.9431C15.7545 10.9666 15.777 10.9901 15.7995 11.0132L16.0237 11.4492C16.0664 11.6134 16.0711 11.7806 16.0486 11.95C16.0153 12.1278 15.9719 12.2509 15.9268 12.365C15.8585 12.5406 15.7689 12.6812 15.6793 12.8219L15.668 12.8397L15.2507 13.2958C15.1026 13.4706 14.9223 13.6022 14.7419 13.7338C14.7209 13.7492 14.6999 13.7645 14.6789 13.7799L14.2787 14.0624L13.7981 14.3201L13.1628 14.6058L12.5056 14.815L12.1042 14.8941L11.6835 14.9278L11.2888 14.8968L10.9083 14.849L10.5565 14.7676L10.0996 14.5538L9.78167 14.3131L9.47419 14.009L9.19274 13.6402L9.01513 13.1385C8.97563 13.0101 8.96435 12.9009 8.95426 12.8031C8.94601 12.7232 8.93855 12.6509 8.9171 12.5821L8.92548 11.9239L9.17148 11.2937L9.46019 10.8009C9.68864 10.5913 9.91857 10.3997 10.1515 10.2446L10.7244 9.96389L11.1543 9.85118L11.8185 9.78199L12.701 9.77424Z" fill="white"/>
</svg>
