<svg width="19" height="19" viewBox="0 0 19 19" fill="none" xmlns="http://www.w3.org/2000/svg">
<path d="M10.6876 5.14656C10.6876 5.46149 10.5625 5.76352 10.3399 5.98621C10.1172 6.2089 9.81516 6.334 9.50025 6.334C9.18533 6.334 8.88332 6.2089 8.66064 5.98621C8.43797 5.76352 8.31287 5.46149 8.31287 5.14656C8.31287 4.83163 8.43797 4.5296 8.66064 4.30692C8.88332 4.08423 9.18533 3.95913 9.50025 3.95913C9.81516 3.95913 10.1172 4.08423 10.3399 4.30692C10.5625 4.5296 10.6876 4.83163 10.6876 5.14656ZM18.9993 15.0419V9.76965C19.0288 7.32943 18.1342 4.96836 16.495 3.16051C14.8558 1.35266 12.5934 0.231868 10.162 0.0231656C8.80496 -0.0717838 7.44333 0.125871 6.16928 0.602756C4.89522 1.07964 3.73845 1.82463 2.77723 2.78732C1.81601 3.75001 1.07277 4.90794 0.597801 6.18276C0.122828 7.45759 -0.0727988 8.81957 0.0241577 10.1765C0.374039 15.2065 4.81563 19 10.3575 19H15.0414C16.0907 18.9987 17.0967 18.5813 17.8387 17.8393C18.5806 17.0973 18.998 16.0912 18.9993 15.0419ZM10.0544 1.60325C12.0859 1.78298 13.9742 2.72491 15.3399 4.2398C16.7055 5.75469 17.4472 7.73028 17.4161 9.76965V15.0419C17.4161 15.6717 17.1659 16.2758 16.7206 16.7212C16.2752 17.1665 15.6712 17.4167 15.0414 17.4167H10.3575C5.5811 17.4167 1.90101 14.3294 1.60417 10.0673C1.52624 8.98165 1.67301 7.8916 2.03533 6.86523C2.39765 5.83887 2.96772 4.89825 3.70992 4.10215C4.45213 3.30604 5.35053 2.67156 6.34899 2.23833C7.34745 1.8051 8.42452 1.58244 9.51291 1.58425C9.6926 1.58425 9.87388 1.59137 10.0544 1.60325ZM11.0834 14.2502V9.5005C11.0834 9.0806 10.9166 8.67789 10.6197 8.38097C10.3228 8.08406 9.92013 7.91725 9.50025 7.91725H8.70866C8.49872 7.91725 8.29737 8.00065 8.14892 8.14911C8.00047 8.29757 7.91707 8.49892 7.91707 8.70888C7.91707 8.91883 8.00047 9.12018 8.14892 9.26864C8.29737 9.4171 8.49872 9.5005 8.70866 9.5005H9.50025V14.2502C9.50025 14.4602 9.58365 14.6616 9.7321 14.81C9.88055 14.9585 10.0819 15.0419 10.2918 15.0419C10.5018 15.0419 10.7031 14.9585 10.8516 14.81C11 14.6616 11.0834 14.4602 11.0834 14.2502Z" fill="#E50051"/>
</svg>
