<svg width="27" height="27" viewBox="0 0 27 27" fill="none" xmlns="http://www.w3.org/2000/svg">
<path d="M15.1892 7.31392C15.1892 7.76147 15.0114 8.1907 14.695 8.50716C14.3785 8.82363 13.9493 9.00142 13.5017 9.00142C13.0542 9.00142 12.6249 8.82363 12.3085 8.50716C11.992 8.1907 11.8142 7.76147 11.8142 7.31392C11.8142 6.86637 11.992 6.43715 12.3085 6.12068C12.6249 5.80421 13.0542 5.62642 13.5017 5.62642C13.9493 5.62642 14.3785 5.80421 14.695 6.12068C15.0114 6.43715 15.1892 6.86637 15.1892 7.31392ZM27.0017 21.3764V13.8839C27.0437 10.416 25.7722 7.06068 23.4426 4.49149C21.1129 1.9223 17.8976 0.329513 14.4422 0.0329213C12.5136 -0.102014 10.5784 0.178878 8.76775 0.856593C6.95706 1.53431 5.31307 2.59303 3.94699 3.96114C2.58091 5.32924 1.52462 6.97481 0.849592 8.7865C0.174562 10.5982 -0.103461 12.5337 0.0343329 14.4622C0.531583 21.6104 6.84396 27.0014 14.7201 27.0014H21.3767C22.868 26.9996 24.2977 26.4064 25.3522 25.3519C26.4067 24.2974 26.9999 22.8677 27.0017 21.3764ZM14.2892 2.27842C17.1765 2.53384 19.8601 3.87245 21.8009 6.0253C23.7418 8.17814 24.7959 10.9857 24.7517 13.8839V21.3764C24.7517 22.2715 24.3961 23.13 23.7632 23.7629C23.1303 24.3958 22.2718 24.7514 21.3767 24.7514H14.7201C7.93183 24.7514 2.70171 20.3639 2.27983 14.3069C2.16908 12.7641 2.37768 11.215 2.8926 9.75637C3.40752 8.29778 4.21771 6.96104 5.27253 5.82968C6.32735 4.69831 7.60415 3.79662 9.02316 3.18095C10.4422 2.56528 11.9729 2.24884 13.5197 2.25142C13.7751 2.25142 14.0327 2.26155 14.2892 2.27842ZM15.7517 20.2514V13.5014C15.7517 12.9047 15.5147 12.3324 15.0927 11.9104C14.6707 11.4885 14.0984 11.2514 13.5017 11.2514H12.3767C12.0783 11.2514 11.7922 11.3699 11.5812 11.5809C11.3702 11.7919 11.2517 12.0781 11.2517 12.3764C11.2517 12.6748 11.3702 12.9609 11.5812 13.1719C11.7922 13.3829 12.0783 13.5014 12.3767 13.5014H13.5017V20.2514C13.5017 20.5498 13.6202 20.8359 13.8312 21.0469C14.0422 21.2579 14.3283 21.3764 14.6267 21.3764C14.9251 21.3764 15.2112 21.2579 15.4222 21.0469C15.6332 20.8359 15.7517 20.5498 15.7517 20.2514Z" fill="white"/>
</svg>
