<svg width="20" height="20" viewBox="0 0 20 20" fill="none" xmlns="http://www.w3.org/2000/svg">
<path d="M10.0482 8.08317C8.99337 8.08317 8.13743 8.9391 8.13743 9.99396C8.13743 11.0488 8.99337 11.9047 10.0482 11.9047C11.1031 11.9047 11.959 11.0488 11.959 9.99396C11.959 8.9391 11.1031 8.08317 10.0482 8.08317Z" fill="white"/>
<path fill-rule="evenodd" clip-rule="evenodd" d="M12.4171 5.07534H7.57681C6.19646 5.07534 5.0753 6.19649 5.0753 7.57684V12.4171C5.0753 13.7975 6.19646 14.9186 7.57681 14.9186H12.4171C13.7974 14.9186 14.9186 13.7975 14.9186 12.4171V7.57684C14.9186 6.19649 13.7974 5.07534 12.4171 5.07534ZM10.0482 12.9837C8.40261 12.9837 7.06445 11.6456 7.06445 9.99999C7.06445 8.35442 8.40261 7.01626 10.0482 7.01626C11.6937 7.01626 13.0319 8.35442 13.0319 9.99999C13.0319 11.6456 11.6937 12.9837 10.0482 12.9837ZM13.2067 7.52259C12.8149 7.52259 12.4954 7.20312 12.4954 6.81132C12.4954 6.41952 12.8149 6.10005 13.2067 6.10005C13.5985 6.10005 13.918 6.41952 13.918 6.81132C13.918 7.20312 13.5985 7.52259 13.2067 7.52259Z" fill="white"/>
<path fill-rule="evenodd" clip-rule="evenodd" d="M0 10C0 4.47257 4.4786 0 10 0C15.5214 0 20 4.4786 20 10C20 15.5214 15.5214 20 10 20C4.4786 20 0 15.5274 0 10ZM12.4171 16.0579C14.4244 16.0579 16.0579 14.4244 16.0579 12.4171V7.57685C16.0579 5.56962 14.4244 3.93611 12.4171 3.93611H7.57685C5.56962 3.93611 3.93611 5.56962 3.93611 7.57685V12.4171C3.93611 14.4244 5.56962 16.0579 7.57685 16.0579H12.4171Z" fill="white"/>
</svg>
