<svg width="23" height="23" viewBox="0 0 23 23" fill="none" xmlns="http://www.w3.org/2000/svg">
<path fill-rule="evenodd" clip-rule="evenodd" d="M12.1962 5.60432L13.3666 5.21823L14.2272 5L14.778 5.01679L15.191 5.15108L15.5353 5.47002L15.5697 5.85612L15.5009 6.1247L15.2083 6.35971L14.7091 6.61151L14.3477 6.82974L14.1411 7.09832L14.0034 7.66906L13.9002 8.13909L14.0034 8.86091L14.3821 9.34772L14.8984 10.0528L15.4664 11.2446L15.7074 12.0168L15.9312 13.3765L16 14.3333L15.9484 15.2566L15.7591 16.2638L15.4493 16.9856L15.0878 17.5899L14.6747 18.2446L14.2789 18.6307L13.7969 18.8993L12.9191 19L10.5439 18.9664L9.78657 18.8993L9.42512 18.8153L9.13252 18.6307L8.75386 18.2278L7.9449 17.0528L7.63509 16.2134L7.42855 15.458L7.39412 14.7026L7.41137 14.3837L7.15319 14.0144L6.77453 13.3429L6.4303 12.6547L6.12048 11.6139L6 11.0264L6.08606 10.1871L6.24097 9.36451L6.56799 8.69305L7.20483 8.0048L7.85888 7.65228L8.56456 7.41727L8.27196 6.84652L8.1859 6.42686L8.25475 6.14149L8.63341 5.8729L9.39073 5.65468L10.1997 5.53717H11.4217L11.7832 5.58753L11.7143 5.6211L11.4045 5.70504H10.9914L10.4923 5.73861L9.7866 5.80576L9.25303 5.97362L8.94322 6.14149L9.02928 6.30935L9.37352 6.39329L9.88987 6.46043L10.1136 6.44365L10.5956 6.27578L11.4045 5.94005L11.9897 5.68825L12.1962 5.60432ZM7.45431 13.0492L7.5834 12.2602L7.85019 11.3705L8.17721 10.5564L8.46981 10.0276L8.71938 9.65827L8.79684 9.52398L8.90871 9.21343L8.93455 8.70144L8.87431 8.34892L8.79685 8.2566L8.67637 8.19784L8.58171 8.23142L8.08256 8.5L7.72972 8.7518L7.23918 9.247L6.98101 9.67506L6.80028 10.2122L6.74866 10.7746L6.80892 11.3285L6.91219 11.8405L7.07569 12.3106L7.24781 12.6631L7.45431 13.0492ZM9.8985 7.40887L9.66614 7.48441L9.59729 7.65228L9.60586 7.84532L9.64888 8.33213L9.73494 9.02038L9.68332 9.33093L9.5112 9.70863L9.26163 10.1787L8.96042 10.7242L8.66782 11.4964L8.46128 12.0923L8.30637 12.8981L8.3408 13.0659L8.40104 13.1079L8.4957 13.1247L8.60758 13.0659L8.71946 12.7974L8.85715 12.47L9.06369 11.8825L9.35629 11.2446L9.52841 10.8501L9.9501 10.1787L10.1825 9.72542L10.3374 9.35611L10.4148 8.88609L10.4321 8.40767V7.8789L10.3976 7.61031L10.3116 7.43405L10.1567 7.40048L9.8985 7.40887Z" fill="white" stroke="white" stroke-width="0.278832" stroke-linecap="round" stroke-linejoin="round"/>
<path d="M19.6321 3.36794C17.4596 1.19612 14.5721 0 11.5 0C8.42794 0 5.54036 1.19612 3.36794 3.36794C1.19612 5.54036 0 8.42794 0 11.5C0 14.5721 1.19612 17.4596 3.36794 19.6321C5.54036 21.8039 8.42794 23 11.5 23C14.5721 23 17.4596 21.8039 19.6321 19.6321C21.8039 17.4596 23 14.5721 23 11.5C23 8.42794 21.8039 5.54036 19.6321 3.36794ZM11.5 22.1016C5.65417 22.1016 0.898438 17.3458 0.898438 11.5C0.898438 5.65417 5.65417 0.898438 11.5 0.898438C17.3458 0.898438 22.1016 5.65417 22.1016 11.5C22.1016 17.3458 17.3458 22.1016 11.5 22.1016Z" fill="#E50051"/>
</svg>
