<svg width="21" height="19" viewBox="0 0 21 19" fill="none" xmlns="http://www.w3.org/2000/svg">
<path fill-rule="evenodd" clip-rule="evenodd" d="M15.1619 0C14.3958 0 13.6371 0.155077 12.9291 0.456478C12.2212 0.757862 11.5777 1.19971 11.0355 1.75698L10.4997 2.30748L9.96395 1.75698C8.86887 0.631841 7.3845 0.000517466 5.83761 0.000517507C4.29073 0.000517507 2.80636 0.631841 1.71128 1.75698C0.616055 2.88226 0 4.4094 0 6.00266C0 7.59593 0.616055 9.12306 1.71128 10.2483L10.0372 18.8028C10.2931 19.0657 10.7064 19.0657 10.9623 18.8028L19.2881 10.2485C19.8305 9.69141 20.2611 9.02968 20.5549 8.30117C20.8487 7.57261 21 6.79155 21 6.00266C21 5.21377 20.8487 4.43272 20.5549 3.70415C20.2611 2.9757 19.8307 2.31412 19.2883 1.75709C18.7461 1.19977 18.1026 0.757882 17.3946 0.456478C16.6867 0.155077 15.928 0 15.1619 0ZM13.4288 1.71142C13.9781 1.47756 14.567 1.35714 15.1619 1.35714C15.7567 1.35714 16.3456 1.47756 16.895 1.71142C17.4443 1.94527 17.9431 2.28791 18.363 2.71956C18.7831 3.151 19.1164 3.66325 19.3435 4.22649C19.5706 4.78972 19.6875 5.39326 19.6875 6.00266C19.6875 6.61207 19.5706 7.21561 19.3435 7.77884C19.1164 8.34208 18.7833 8.8541 18.3632 9.28554L10.4997 17.3648L2.63639 9.28565C1.78823 8.41421 1.3125 7.23319 1.3125 6.00266C1.3125 4.77213 1.78823 3.59112 2.63639 2.71968C3.4847 1.84809 4.63614 1.35766 5.83761 1.35766C7.03909 1.35766 8.19053 1.84809 9.03883 2.71968L10.0372 3.74543C10.2931 4.0084 10.7064 4.0084 10.9623 3.74543L11.9607 2.71968C12.3806 2.28803 12.8795 1.94527 13.4288 1.71142Z" fill="white"/>
</svg>
