<svg width="16" height="16" viewBox="0 0 16 16" fill="none" xmlns="http://www.w3.org/2000/svg">
<path d="M15.9994 1.33753V4.0092C15.9994 4.18634 15.929 4.35623 15.8038 4.48149C15.6786 4.60675 15.5087 4.67712 15.3316 4.67712C15.1545 4.67712 14.9847 4.60675 14.8595 4.48149C14.7342 4.35623 14.6639 4.18634 14.6639 4.0092V2.29866L11.1249 5.81925C11.0649 5.88966 10.9909 5.94682 10.9076 5.98711C10.8243 6.0274 10.7336 6.04995 10.6411 6.05332C10.5487 6.05669 10.4566 6.04081 10.3706 6.00669C10.2846 5.97257 10.2066 5.92095 10.1416 5.85511C10.0767 5.78927 10.0261 5.71063 9.99304 5.6242C9.96003 5.53776 9.94533 5.4454 9.94989 5.35299C9.95444 5.26057 9.97813 5.17011 10.0195 5.08734C10.0608 5.00456 10.1189 4.93128 10.19 4.87215L13.7357 1.33753H11.9929C11.8158 1.33753 11.646 1.26716 11.5208 1.1419C11.3956 1.01664 11.3252 0.846753 11.3252 0.66961C11.3252 0.492467 11.3956 0.32258 11.5208 0.197321C11.646 0.0720622 11.8158 0.00169246 11.9929 0.00169246H14.6639C15.0181 0.00169246 15.3578 0.142432 15.6082 0.392949C15.8587 0.643467 15.9994 0.983242 15.9994 1.33753ZM13.7658 9.92428C13.3802 9.55734 12.8682 9.35303 12.336 9.35378C11.8038 9.35452 11.2924 9.56027 10.9079 9.92828L9.63516 11.001C8.59622 10.571 7.65246 9.93989 6.85811 9.14394C6.06376 8.348 5.43447 7.4029 5.0064 6.36294L6.07478 5.0939C6.4427 4.70927 6.64839 4.19768 6.64913 3.66535C6.64988 3.13303 6.44563 2.62086 6.07879 2.23521C6.07879 2.23521 4.84213 0.628867 4.8221 0.607494C4.44081 0.224016 3.92408 0.00586457 3.38341 0.000116523C2.84274 -0.00563152 2.32148 0.201484 1.93213 0.576769L1.1649 1.24469C-3.99004 6.72762 9.31131 20.0386 14.7868 14.8034L15.3957 14.1028C15.7827 13.7146 16 13.1888 16 12.6407C16 12.0925 15.7827 11.5668 15.3957 11.1786C15.3737 11.1613 13.7658 9.92428 13.7658 9.92428Z" fill="#E50051"/>
</svg>
