<svg width="16" height="16" viewBox="0 0 16 16" fill="none" xmlns="http://www.w3.org/2000/svg">
<path d="M15.596 10.5773C15.3502 10.2927 15.0184 10.106 14.656 10.0347V9.66667C14.656 8.01267 13.311 6.66667 11.6582 6.66667C10.0054 6.66667 8.66039 8.01267 8.66039 9.66667V10.0347C8.29798 10.106 7.96622 10.2927 7.7204 10.5773C7.40396 10.944 7.26273 11.4293 7.33268 11.9087L7.68176 14.2907C7.82499 15.2653 8.67504 16 9.65899 16H13.6561C14.64 16 15.4901 15.2653 15.6333 14.2907L15.9824 11.9087C16.0524 11.4293 15.9118 10.944 15.5947 10.5773H15.596ZM11.6582 8C12.5762 8 13.3237 8.748 13.3237 9.66667V10H9.99275V9.66667C9.99275 8.748 10.7402 8 11.6582 8ZM13.9605 6H15.9884V9.16933C15.9777 9.162 15.9684 9.15333 15.9571 9.146C15.7979 7.82133 15.0384 6.68 13.9605 6ZM6.71247 9.70533C6.14288 10.3653 5.8884 11.2387 6.01497 12.102L6.36472 14.4847C6.37404 14.5473 6.39603 14.6053 6.40869 14.6667H3.33158C1.49492 14.6667 0.000666184 13.1713 0.000666184 11.3333V6H9.35655C8.27866 6.68 7.51855 7.82133 7.36 9.146C7.11884 9.3 6.90033 9.488 6.71247 9.70533ZM15.9884 3.33333C15.9884 1.49533 14.4942 0 12.6575 0H3.33092C1.49425 0 0 1.49533 0 3.33333V4.66667H15.9884V3.33333ZM2.99783 3.33333C2.44623 3.33333 1.99855 2.88533 1.99855 2.33333C1.99855 1.78133 2.44623 1.33333 2.99783 1.33333C3.54943 1.33333 3.9971 1.78133 3.9971 2.33333C3.9971 2.88533 3.54943 3.33333 2.99783 3.33333ZM5.66256 3.33333C5.11096 3.33333 4.66328 2.88533 4.66328 2.33333C4.66328 1.78133 5.11096 1.33333 5.66256 1.33333C6.21416 1.33333 6.66184 1.78133 6.66184 2.33333C6.66184 2.88533 6.21416 3.33333 5.66256 3.33333Z" fill="#E50051"/>
</svg>
