<svg width="27" height="28" viewBox="0 0 27 28" fill="none" xmlns="http://www.w3.org/2000/svg">
<path d="M27.0013 12.6799C26.8386 10.0474 25.9091 7.52008 24.3274 5.40948C22.7457 3.29888 20.5809 1.69728 18.1 0.802121C15.619 -0.0930393 12.9303 -0.242624 10.3654 0.371809C7.80047 0.986241 5.47141 2.33783 3.66534 4.25995C1.85928 6.18207 0.655166 8.59068 0.201454 11.1889C-0.252257 13.7871 0.0642657 16.4612 1.112 18.8817C2.15974 21.3021 3.89288 23.3631 6.09777 24.8105C8.30265 26.2578 10.8829 27.0283 13.5204 27.027H21.3763C22.8677 27.0255 24.2975 26.4324 25.3521 25.3778C26.4067 24.3233 26.9998 22.8934 27.0013 21.402V12.6799ZM24.7513 21.402C24.7513 22.2971 24.3957 23.1556 23.7628 23.7885C23.1298 24.4214 22.2714 24.777 21.3763 24.777H13.5204C11.9329 24.7763 10.3635 24.441 8.9143 23.793C7.46514 23.145 6.16883 22.1988 5.1099 21.0161C4.04584 19.8341 3.24682 18.4382 2.7664 16.922C2.28598 15.4059 2.13528 13.8045 2.3244 12.2254C2.62301 9.73456 3.74211 7.41396 5.50527 5.62942C7.26843 3.84487 9.57536 2.69788 12.0624 2.36925C12.5475 2.30845 13.036 2.27764 13.5249 2.277C16.1467 2.26985 18.6873 3.18589 20.7013 4.8645C21.8775 5.84206 22.8429 7.0483 23.5391 8.41008C24.2353 9.77187 24.6477 11.2608 24.7513 12.7868V21.402Z" fill="white"/>
<path d="M9.00128 10.152H13.5013C13.7996 10.152 14.0858 10.0335 14.2968 9.8225C14.5078 9.61152 14.6263 9.32537 14.6263 9.027C14.6263 8.72863 14.5078 8.44248 14.2968 8.23151C14.0858 8.02053 13.7996 7.902 13.5013 7.902H9.00128C8.70291 7.902 8.41676 8.02053 8.20578 8.23151C7.9948 8.44248 7.87628 8.72863 7.87628 9.027C7.87628 9.32537 7.9948 9.61152 8.20578 9.8225C8.41676 10.0335 8.70291 10.152 9.00128 10.152Z" fill="white"/>
<path d="M18.0013 12.402H9.00128C8.70291 12.402 8.41676 12.5205 8.20578 12.7315C7.9948 12.9425 7.87628 13.2286 7.87628 13.527C7.87628 13.8254 7.9948 14.1115 8.20578 14.3225C8.41676 14.5335 8.70291 14.652 9.00128 14.652H18.0013C18.2996 14.652 18.5858 14.5335 18.7968 14.3225C19.0078 14.1115 19.1263 13.8254 19.1263 13.527C19.1263 13.2286 19.0078 12.9425 18.7968 12.7315C18.5858 12.5205 18.2996 12.402 18.0013 12.402Z" fill="white"/>
<path d="M18.0013 16.902H9.00128C8.70291 16.902 8.41676 17.0205 8.20578 17.2315C7.9948 17.4425 7.87628 17.7286 7.87628 18.027C7.87628 18.3254 7.9948 18.6115 8.20578 18.8225C8.41676 19.0335 8.70291 19.152 9.00128 19.152H18.0013C18.2996 19.152 18.5858 19.0335 18.7968 18.8225C19.0078 18.6115 19.1263 18.3254 19.1263 18.027C19.1263 17.7286 19.0078 17.4425 18.7968 17.2315C18.5858 17.0205 18.2996 16.902 18.0013 16.902Z" fill="white"/>
</svg>
