<svg width="26" height="27" viewBox="0 0 26 27" fill="none" xmlns="http://www.w3.org/2000/svg">
<path d="M20.9219 0H5.07812C1.38531 0 0 1.43738 0 5.66713V21.0227C0 25.2524 1.38531 27 5.07812 27H20.9219C24.6147 27 26 25.2524 26 21.0227V5.66713C26 1.43738 24.6147 0 20.9219 0ZM23.9688 21.0227C23.9688 22.9491 22.6038 24.5126 20.9219 24.5126H19.8859C18.8866 21.26 16.1809 18.9287 13 18.9287C9.81906 18.9287 7.11344 21.26 6.11406 24.5126H5.07812C3.39625 24.5126 2.03125 22.9491 2.03125 21.0227V5.66713C2.03125 3.74071 3.39625 2.17723 5.07812 2.17723H20.9219C22.6038 2.17723 23.9688 3.74071 23.9688 5.66713V21.0227ZM18.4167 10.553C18.4167 13.638 15.6934 16.1368 13 16.1368C10.3066 16.1368 7.58333 13.638 7.58333 10.553C7.58333 7.46791 10.3066 4.96915 13 4.96915C15.6934 4.96915 18.4167 7.46791 18.4167 10.553Z" fill="white"/>
</svg>
