<svg width="23" height="23" viewBox="0 0 23 23" fill="none" xmlns="http://www.w3.org/2000/svg">
<path d="M19.6321 3.36794C17.4596 1.19612 14.5721 0 11.5 0C8.42794 0 5.54036 1.19612 3.36794 3.36794C1.19612 5.54036 0 8.42794 0 11.5C0 14.5721 1.19612 17.4596 3.36794 19.6321C5.54036 21.8039 8.42794 23 11.5 23C14.5721 23 17.4596 21.8039 19.6321 19.6321C21.8039 17.4596 23 14.5721 23 11.5C23 8.42794 21.8039 5.54036 19.6321 3.36794ZM11.5 22.1016C5.65417 22.1016 0.898438 17.3458 0.898438 11.5C0.898438 5.65417 5.65417 0.898438 11.5 0.898438C17.3458 0.898438 22.1016 5.65417 22.1016 11.5C22.1016 17.3458 17.3458 22.1016 11.5 22.1016Z" fill="#E50051"/>
<path fill-rule="evenodd" clip-rule="evenodd" d="M4.11432 12.3485L4.75565 12.0528L4 11.4514C4.01445 11.4282 4.02873 11.4049 4.04302 11.3817C4.12875 11.2421 4.21447 11.1025 4.3361 10.9629C4.41014 10.8774 4.48051 10.7917 4.55088 10.7059C4.75335 10.4593 4.95582 10.2126 5.24569 9.97128C5.28683 9.93955 5.32777 9.90761 5.36868 9.87568C5.6421 9.66235 5.91491 9.44947 6.24749 9.30111C6.53383 9.15699 6.84925 9.0414 7.17079 8.93181C7.6289 8.81014 8.16526 8.69143 8.80821 8.57673C8.87748 8.55596 8.94857 8.53733 9.01966 8.5187C9.19445 8.47291 9.36923 8.42711 9.51697 8.34948L9.91251 7.86058C9.95864 7.82273 10.004 7.78471 10.0494 7.74668C10.2297 7.59566 10.41 7.44465 10.6358 7.30477C10.6877 7.28194 10.736 7.25817 10.7842 7.23441C10.9662 7.14483 11.1481 7.05525 11.5274 7.01547C11.7049 6.98079 11.878 7.00681 12.0483 7.06967C12.1595 7.12523 12.254 7.19251 12.2667 7.31711C12.2448 7.46787 12.1935 7.61862 12.1006 7.76938L11.6661 8.48702C11.6516 8.51962 11.6336 8.54886 11.6157 8.57809C11.5773 8.64042 11.539 8.70275 11.5339 8.79763C11.5873 8.81386 11.6407 8.82993 11.6941 8.84599C12.0152 8.9426 12.3362 9.03921 12.6573 9.17103C12.9462 9.25676 13.1835 9.37063 13.4207 9.4845C13.4758 9.51095 13.5309 9.5374 13.5867 9.56349C13.8814 9.67498 14.0877 9.78646 14.2939 9.89795C14.3325 9.91878 14.371 9.93961 14.4101 9.96044C14.7409 10.1476 15.0194 10.3348 15.2979 10.522C15.3569 10.5617 15.416 10.6014 15.4756 10.6411L15.8837 10.982C15.8995 10.9597 15.9148 10.9378 15.9299 10.9162C16.0888 10.689 16.2255 10.4937 16.6001 10.2109C16.6349 10.1878 16.6694 10.1646 16.7039 10.1414C16.9367 9.98471 17.1696 9.82802 17.5055 9.70702C17.5667 9.69285 17.6266 9.67773 17.6865 9.66262C17.9281 9.60163 18.1697 9.54065 18.5023 9.54107L18.5391 9.54263C18.7034 9.54941 18.9518 9.55966 19 9.67002L18.5633 10.0161C18.4141 10.135 18.265 10.2989 18.1158 10.4628C18.0808 10.5012 18.0458 10.5397 18.0108 10.5775C17.8028 10.891 17.6981 11.1033 17.6244 11.2851C17.6162 11.3153 17.6076 11.3456 17.599 11.3758C17.5529 11.5382 17.5067 11.7006 17.5314 11.863C17.5325 12.0231 17.6219 12.2158 17.7112 12.4085C17.7396 12.4697 17.768 12.5309 17.7936 12.5911L18.3427 13.2489L18.9989 13.8114C18.9115 13.9499 18.8997 13.9551 18.769 14.0127C18.7269 14.0313 18.6724 14.0553 18.5991 14.091C18.3687 14.1529 18.1383 14.1442 17.9079 14.1161L17.3363 13.9142C17.2781 13.8729 17.217 13.8323 17.1562 13.7919C16.9883 13.6802 16.8226 13.57 16.7258 13.4511L16.1794 12.9118L15.8719 12.5372C15.7528 12.7136 15.6106 12.877 15.4417 13.0254C15.215 13.2155 14.9751 13.373 14.7352 13.5305L14.7047 13.5506L14.1167 13.8488L13.4644 14.131C12.971 14.3295 12.4718 14.4993 11.9714 14.6633L11.327 14.8483C11.3153 14.9794 11.3815 15.0723 11.4832 15.1477L11.9378 15.4699L12.304 15.7868C12.2063 15.8668 12.0742 15.9075 11.9421 15.9482C11.9109 15.9578 11.8798 15.9674 11.8491 15.9775C11.7222 16.0099 11.5586 16.0005 11.3951 15.991C11.3725 15.9897 11.3499 15.9884 11.3274 15.9872C11.0361 15.9028 10.7968 15.7809 10.6121 15.6198L10.3141 15.3458L10.0333 14.9851C9.85002 14.9068 9.66673 14.8622 9.48344 14.8326L8.32807 14.6992C7.78282 14.6609 7.23089 14.5834 6.66437 14.42C6.23461 14.2577 5.82349 14.0589 5.44346 13.7991C5.13436 13.5378 4.84172 13.2802 4.62418 13.0396L4.11432 12.3485ZM7.82546 10.8539C7.82546 11.1748 7.56025 11.4349 7.23309 11.4349C6.90594 11.4349 6.64072 11.1748 6.64072 10.8539C6.64072 10.533 6.90594 10.2728 7.23309 10.2728C7.56025 10.2728 7.82546 10.533 7.82546 10.8539ZM8.70101 13.9537L8.35587 14.2553L8.52694 14.1908L8.89635 13.9478L9.26182 13.675L9.49393 13.4229L9.66496 13.1971L9.86702 12.8749L9.97413 12.5325L10.0662 12.1389L10.0925 11.7582L10.0793 11.3646L10.0267 11.0743L9.93463 10.7646L9.78991 10.3645L9.51056 9.87253L9.31589 9.61745L8.90536 9.19945L8.65189 8.9837L8.75714 9.15147L9.11236 9.68701L9.40838 10.3C9.51378 10.5718 9.57744 10.8299 9.61888 11.0807C9.66363 11.3233 9.66664 11.5384 9.66965 11.7537L9.66966 11.7544L9.61764 12.2482C9.58937 12.4662 9.51303 12.6789 9.42811 12.8551L9.12551 13.4359L8.70101 13.9537Z" fill="white"/>
</svg>
