<svg width="13" height="13" viewBox="0 0 13 13" fill="none" xmlns="http://www.w3.org/2000/svg">
<path d="M9.4705 3.81604C9.32642 3.7635 9.16392 3.79275 9.02146 3.89458C8.38446 4.45846 7.65321 5.64742 7.58442 7.2215C7.55517 8.51554 8.10442 9.70071 9.20833 10.7483V12.7292C9.20833 12.8787 9.32967 13 9.47917 13C9.62867 13 9.75 12.8787 9.75 12.7292C9.74242 12.6636 9.76517 4.18438 9.74188 4.12533C9.70558 3.98071 9.60429 3.86479 9.4705 3.81604ZM8.12608 7.23829C8.17971 5.92204 8.77392 4.94325 9.20833 4.46875V9.97587C8.46733 9.13737 8.10388 8.21763 8.12608 7.23883V7.23829ZM4.875 8.09738V12.7292C4.875 12.8787 4.75367 13 4.60417 13C4.45467 13 4.33333 12.8787 4.33333 12.7292V8.09738C3.41683 7.96467 2.70833 7.18142 2.70833 6.22917V4.0625C2.70833 3.913 2.82967 3.79167 2.97917 3.79167C3.12867 3.79167 3.25 3.913 3.25 4.0625V6.22917C3.25 6.88296 3.71583 7.43004 4.33333 7.55571V4.0625C4.33333 3.913 4.45467 3.79167 4.60417 3.79167C4.75367 3.79167 4.875 3.913 4.875 4.0625V7.55571C5.4925 7.43004 5.95833 6.88296 5.95833 6.22917V4.0625C5.95833 3.913 6.07967 3.79167 6.22917 3.79167C6.37867 3.79167 6.5 3.913 6.5 4.0625V6.22917C6.5 7.18142 5.7915 7.96467 4.875 8.09738ZM8.1185 12.5228C8.151 12.669 8.05892 12.8131 7.91267 12.8456C7.45117 12.9475 6.97613 12.9995 6.5 12.9995C6.40521 12.9995 6.31096 12.9978 6.21725 12.9935C6.06775 12.987 5.95183 12.8602 5.95833 12.7113C5.96483 12.5623 6.097 12.4421 6.24054 12.4524C6.75838 12.4735 7.28813 12.4291 7.79513 12.317C7.94788 12.2861 8.086 12.3771 8.1185 12.5228ZM13 6.49946C13 8.12337 12.3982 9.6785 11.304 10.8778C11.2033 10.9883 11.0321 10.9964 10.9216 10.8956C10.8111 10.7949 10.803 10.6237 10.9043 10.5127C11.9064 9.41363 12.4583 7.98796 12.4583 6.49946C12.4583 3.21425 9.78521 0.541125 6.5 0.541125C3.21479 0.541125 0.541667 3.21479 0.541667 6.5C0.541667 8.46463 1.51017 10.3025 3.13246 11.4162C3.25596 11.5007 3.28683 11.6691 3.20233 11.7926C3.14979 11.869 3.06529 11.9102 2.97863 11.9102C2.92554 11.9102 2.87246 11.895 2.82533 11.8625C1.05625 10.6481 0 8.64338 0 6.5C0 2.91579 2.91579 0 6.5 0C10.0842 0 13 2.91579 13 6.5V6.49946Z" fill="#FF9F06"/>
</svg>
