<svg width="34" height="34" viewBox="0 0 34 34" fill="none" xmlns="http://www.w3.org/2000/svg">
<circle cx="17" cy="17" r="17" fill="url(#paint0_linear_375_409)"/>
<mask id="mask0_375_409" style="mask-type:alpha" maskUnits="userSpaceOnUse" x="0" y="0" width="35" height="34">
<circle cx="17.1106" cy="17.1105" r="16.8895" fill="#E9041C"/>
</mask>
<g mask="url(#mask0_375_409)">
<path d="M8.52698 26.7263L22.9132 21.7265L30.3337 29.1158L20.6251 38.8244L8.52698 26.7263Z" fill="#E40521"/>
</g>
<path d="M20.4255 3.69363C21.9913 6.02975 20.599 7.21359 19.0364 7.90812C14.5535 9.53393 12.1701 10.1337 11.3493 11.1597C10.4654 12.1952 11.3966 13.2433 12.0123 13.559C13.1614 14.203 14.6904 14.9533 15.3113 15.2479C16.0373 15.6741 15.4059 16.0687 15.1534 16.4002C14.9166 16.8106 15.4849 17.1316 15.8637 17.3473C16.2667 17.5803 16.5295 17.7758 16.6943 17.9258C16.8877 18.1018 17.0185 18.3471 17.0501 18.6068C17.066 18.7374 17.0587 18.849 17.0476 18.91C17.6158 18.1776 16.9055 17.3946 16.4793 17.0947C15.9869 16.6654 16.5267 16.1266 16.8582 15.9109C17.4012 15.5194 17.3948 15.2637 17.2844 15.0901C16.7792 14.4745 15.8269 14.2167 15.5007 14.1115C13.9601 13.6316 13.7223 12.975 13.796 12.7066C14.0359 12.0626 15.0956 11.8385 15.5954 11.8069C19.0806 11.3397 20.3465 11.0019 22.2881 9.6602C24.3715 8.05018 21.8198 4.99323 20.4255 3.69363Z" fill="white"/>
<rect x="25.5709" y="26.9094" width="17.1421" height="0.949631" rx="0.474815" transform="rotate(-180 25.5709 26.9094)" fill="white"/>
<path d="M24.6943 25.6675L9.30545 25.6675C9.30545 22.7897 11.6384 20.4567 14.5162 20.4567H19.4835C22.3614 20.4567 24.6943 22.7897 24.6943 25.6675Z" fill="white"/>
<path d="M16.2896 19.9042C16.2896 19.7735 16.3956 19.6675 16.5263 19.6675H17.4734C17.6042 19.6675 17.7102 19.7735 17.7102 19.9042C17.7102 20.035 17.6042 20.141 17.4734 20.141H16.5263C16.3956 20.141 16.2896 20.035 16.2896 19.9042Z" fill="white"/>
<defs>
<linearGradient id="paint0_linear_375_409" x1="25.6181" y1="34.754" x2="25.6181" y2="5.08595" gradientUnits="userSpaceOnUse">
<stop stop-color="#9C0010"/>
<stop offset="1" stop-color="#360006" stop-opacity="0"/>
</linearGradient>
</defs>
</svg>
