<svg width="15" height="14" viewBox="0 0 15 14" fill="none" xmlns="http://www.w3.org/2000/svg">
<g clip-path="url(#clip0_123_2026)">
<path d="M12.5997 10.952L12.5997 10.9516L12.054 3.94173C12.054 3.94166 12.0539 3.94158 12.0539 3.9415C12.0132 3.40252 11.566 2.97626 11.0284 2.97626H10.1206C10.0571 1.61292 8.94862 0.51881 7.58832 0.51881C6.22801 0.51881 5.11953 1.61292 5.05601 2.97626H4.14824C3.6108 2.97626 3.16338 3.40236 3.12279 3.94056C3.12278 3.94064 3.12278 3.94072 3.12277 3.9408L2.5769 10.9525L2.57687 10.953C2.53109 11.5613 2.73789 12.1672 3.1455 12.6158C3.55324 13.0646 4.13164 13.3226 4.73336 13.3226H10.4433C11.0449 13.3226 11.6234 13.0646 12.0311 12.6158L11.9031 12.4995L12.0311 12.6158C12.4388 12.1671 12.6455 11.5613 12.5997 10.952ZM4.17924 4.05201H5.05313V4.77767C5.05313 5.07156 5.28772 5.31554 5.58405 5.31554C5.88038 5.31554 6.11497 5.07156 6.11497 4.77767V4.05201H9.06166V4.77767C9.06166 5.07156 9.29625 5.31554 9.59258 5.31554C9.88892 5.31554 10.1235 5.07156 10.1235 4.77767V4.05201H10.9974L11.541 11.0347C11.541 11.0348 11.541 11.0348 11.541 11.0349C11.5649 11.3527 11.4614 11.6544 11.2499 11.8873C11.0384 12.12 10.7528 12.2468 10.4433 12.2468H4.73338C4.42386 12.2468 4.13827 12.12 3.92678 11.8873C3.7152 11.6544 3.61179 11.3526 3.63559 11.0359C3.6356 11.0358 3.6356 11.0358 3.63561 11.0357L4.17924 4.05201ZM6.11988 2.97626C6.18173 2.20133 6.81965 1.59456 7.58832 1.59456C8.35698 1.59456 8.99491 2.20135 9.05675 2.97626H6.11988Z" fill="white" stroke="white" stroke-width="0.346047"/>
<path d="M9.41461 6.87444C9.25635 6.71613 8.99965 6.71613 8.84136 6.87444L7.03121 8.68459L6.33517 7.98855C6.17688 7.83024 5.92018 7.83024 5.76186 7.98855C5.60355 8.14687 5.60355 8.40354 5.76186 8.56186L6.74456 9.54455C6.82372 9.62371 6.92748 9.66331 7.03118 9.66331C7.13489 9.66331 7.23867 9.62373 7.31781 9.54455L9.41458 7.44777C9.57292 7.28943 9.57292 7.03276 9.41461 6.87444Z" fill="white"/>
</g>
<defs>
<clipPath id="clip0_123_2026">
<rect width="13.8419" height="13.8419" fill="white" transform="translate(0.667114 -0.00012207)"/>
</clipPath>
</defs>
</svg>
