<svg width="12" height="15" viewBox="0 0 12 15" fill="none" xmlns="http://www.w3.org/2000/svg">
<path d="M11.9993 14.6665C12.0113 14.839 11.8726 14.9878 11.6886 14.999C11.5126 15.0128 11.3459 14.8803 11.3339 14.7078C11.174 12.4178 9.12397 10.6247 6.66666 10.6247H5.33334C5.10668 10.6247 4.88534 10.6447 4.66668 10.6741V14.6872C4.66668 14.8596 4.51735 14.9996 4.33335 14.9996C4.14935 14.9996 4.00002 14.8596 4.00002 14.6872V10.8066C2.1727 11.3172 0.796716 12.8484 0.666051 14.7078C0.654051 14.8728 0.508052 14.9996 0.333387 14.9996C0.326054 14.9996 0.318721 14.9996 0.311387 14.9996C0.127389 14.9878 -0.0112763 14.8396 0.000723602 14.6672C0.184722 12.0503 2.5267 10.0004 5.33334 10.0004H6.66666C9.4733 10.0004 11.8159 12.0503 11.9993 14.6672V14.6665ZM6.66666 11.2497C6.29866 11.2497 6 11.5297 6 11.8747C6 12.2197 6.29866 12.4997 6.66666 12.4997C7.03466 12.4997 7.33332 12.2197 7.33332 11.8747C7.33332 11.5297 7.03466 11.2497 6.66666 11.2497ZM6.66666 13.7497C6.29866 13.7497 6 14.0297 6 14.3747C6 14.7197 6.29866 14.9996 6.66666 14.9996C7.03466 14.9996 7.33332 14.7197 7.33332 14.3747C7.33332 14.0297 7.03466 13.7497 6.66666 13.7497ZM0.666717 1.65184C0.666717 0.741232 1.45738 0 2.4287 0C2.86736 0 3.42669 0.155621 3.89669 0.40374C4.24802 0.276243 5.11268 0 6 0C6.88732 0 7.75198 0.276243 8.10331 0.40374C8.57331 0.155621 9.13264 0 9.5713 0C10.5426 0 11.3333 0.741232 11.3333 1.65184C11.3333 2.2637 10.9726 2.82243 10.3926 3.10805C10.1466 3.22867 9.99996 3.44117 9.99996 3.67491V5.62487C9.99996 7.69294 8.20598 9.37478 6 9.37478C3.79402 9.37478 2.00004 7.69294 2.00004 5.62487V3.67491C2.00004 3.44117 1.85337 3.22867 1.60737 3.10805C1.02671 2.82243 0.666717 2.2637 0.666717 1.65184ZM9.3333 5.62487V4.99988H2.6667V5.62487C2.6667 7.34795 4.16202 8.74979 6 8.74979C7.83798 8.74979 9.3333 7.34795 9.3333 5.62487ZM1.33338 1.65184C1.33338 2.0312 1.55738 2.37744 1.91737 2.55494C2.37937 2.78181 2.6667 3.2118 2.6667 3.67491V4.3749H9.3333V3.67491C9.3333 3.2118 9.62063 2.78181 10.0826 2.55494C10.4426 2.37744 10.6666 2.0312 10.6666 1.65184C10.6666 1.08622 10.1753 0.624985 9.5713 0.624985C9.20797 0.624985 8.70131 0.781856 8.30998 1.0156C8.21665 1.07185 8.09865 1.08122 7.99598 1.03748C7.98598 1.03373 6.98399 0.624985 5.99933 0.624985C5.01468 0.624985 4.01269 1.03373 4.00202 1.03748C3.90002 1.08122 3.78269 1.07185 3.68869 1.0156C3.29736 0.781856 2.7907 0.624985 2.42803 0.624985C1.82404 0.624985 1.33271 1.0856 1.33271 1.65184H1.33338Z" fill="#FF9F06"/>
</svg>
