<svg width="20" height="20" viewBox="0 0 20 20" fill="none" xmlns="http://www.w3.org/2000/svg">
<path d="M10 0C4.4786 0 0 4.4786 0 10C0 15.5214 4.4786 20 10 20C15.5214 20 20 15.5214 20 10C20 4.4786 15.5214 0 10 0ZM15.7565 8.74623C15.648 8.75829 15.5395 8.76432 15.437 8.76432C14.2556 8.76432 13.1585 8.16757 12.5075 7.18505V12.5678C12.5075 14.7679 10.7233 16.5461 8.52924 16.5461C6.33515 16.5461 4.55093 14.7619 4.55093 12.5678C4.55093 10.3737 6.33515 8.58951 8.52924 8.58951C8.61363 8.58951 8.69198 8.59554 8.77637 8.60157V10.5606C8.69198 10.5485 8.61363 10.5365 8.52924 10.5365C7.40808 10.5365 6.49789 11.4467 6.49789 12.5678C6.49789 13.689 7.40808 14.5992 8.52924 14.5992C9.65039 14.5992 10.645 13.7131 10.645 12.5919L10.663 3.44786H12.5377C12.7125 5.1296 14.0687 6.44364 15.7565 6.57022V8.75226V8.74623Z" fill="white"/>
</svg>
