<svg width="20" height="20" viewBox="0 0 20 20" fill="none" xmlns="http://www.w3.org/2000/svg">
<path d="M7.42613 5.31646L10.1024 9.14407L10.5184 9.74081L13.9964 14.7137H12.5678L9.72872 10.651L9.31281 10.0603L5.99756 5.31646H7.42613Z" fill="white"/>
<path fill-rule="evenodd" clip-rule="evenodd" d="M0 10C0 4.4786 4.4786 0 10 0C15.5214 0 20 4.4786 20 10C20 15.5214 15.5214 20 10 20C4.4786 20 0 15.5214 0 10ZM9.25859 11.1995L12.1278 15.3767L12.1338 15.3707H15.2682L11.0066 9.16817L14.9247 4.61121H13.9964L10.5907 8.5654L7.87221 4.61121H4.73779L8.8487 10.5967L4.73779 15.3767H5.66607L9.25859 11.1995Z" fill="white"/>
</svg>
