<svg width="15" height="15" viewBox="0 0 15 15" fill="none" xmlns="http://www.w3.org/2000/svg">
<path d="M11.8746 14.9981H10.6244C10.2794 14.9981 9.99932 14.7182 9.99932 14.3732C9.99932 14.0282 10.2794 13.7483 10.6244 13.7483H11.8746C12.2196 13.7483 12.4997 14.0282 12.4997 14.3732C12.4997 14.7182 12.2196 14.9981 11.8746 14.9981ZM8.12407 14.9981H6.8739C6.52885 14.9981 6.24882 14.7182 6.24882 14.3732C6.24882 14.0282 6.52885 13.7483 6.8739 13.7483H8.12407C8.46912 13.7483 8.74915 14.0282 8.74915 14.3732C8.74915 14.7182 8.46912 14.9981 8.12407 14.9981ZM14.0267 13.9939C13.9105 13.9939 13.7936 13.962 13.6886 13.8939C13.3985 13.707 13.3148 13.3202 13.5023 13.0302C13.6642 12.7797 13.7498 12.4872 13.7498 12.186C13.7498 11.841 14.0299 11.5611 14.3749 11.5611C14.7206 11.5611 15 11.841 15 12.186C15 12.7284 14.845 13.254 14.5531 13.707C14.4337 13.892 14.2324 13.9933 14.0274 13.9933L14.0267 13.9939ZM13.096 10.8211C13.0091 10.8211 12.9203 10.803 12.836 10.7643C12.6322 10.6712 12.4134 10.6237 12.1859 10.6237H11.874C11.5289 10.6237 11.2489 10.3437 11.2489 9.99875C11.2489 9.65379 11.5289 9.37383 11.874 9.37383H12.1865C12.5947 9.37383 12.9879 9.45944 13.356 9.62817C13.6698 9.77128 13.808 10.1425 13.6642 10.4562C13.5592 10.6855 13.3323 10.8211 13.0954 10.8211H13.096ZM9.37424 10.6237C8.81541 10.6237 8.26659 10.4337 7.8284 10.0887C7.55712 9.87501 7.51024 9.48194 7.72401 9.21135C7.93779 8.94013 8.3316 8.89326 8.60163 9.10699C8.82354 9.28134 9.09045 9.37383 9.37361 9.37383C9.71866 9.37383 9.9987 9.65379 9.9987 9.99875C9.9987 10.3437 9.71929 10.6237 9.37361 10.6237H9.37424ZM7.66776 7.97025C7.58087 7.97025 7.49273 7.95213 7.40835 7.91339C7.09455 7.77028 6.95579 7.39908 7.09956 7.08536C7.23207 6.7954 7.4171 6.53606 7.649 6.31484C7.89779 6.07736 8.29472 6.08611 8.53288 6.33608C8.77103 6.58543 8.76165 6.981 8.51162 7.21972C8.39536 7.33033 8.30347 7.46032 8.23721 7.6053C8.1322 7.83527 7.90529 7.97088 7.66838 7.97088L7.66776 7.97025ZM14.0849 0.914886C13.4942 0.324959 12.7091 0 11.8746 0C11.0401 0 10.255 0.324959 9.66428 0.914886C8.44599 2.13348 8.44599 4.11574 9.66928 5.33871L10.7951 6.43919C11.0926 6.73041 11.4839 6.87602 11.8746 6.87602C12.2653 6.87602 12.6566 6.73041 12.9541 6.43919L14.0849 5.33371C15.3032 4.11511 15.3032 2.13286 14.0849 0.914886ZM11.8746 4.06199C11.357 4.06199 10.9369 3.64204 10.9369 3.12461C10.9369 2.60717 11.357 2.18723 11.8746 2.18723C12.3921 2.18723 12.8122 2.60717 12.8122 3.12461C12.8122 3.64204 12.3921 4.06199 11.8746 4.06199ZM5.33307 9.03887C4.74299 8.44894 3.95788 8.12398 3.12339 8.12398C2.2889 8.12398 1.5038 8.44894 0.913093 9.03887C-0.305197 10.2575 -0.305197 12.2397 0.918094 13.4627L2.04387 14.5632C2.34141 14.8544 2.73271 15 3.12339 15C3.51407 15 3.90537 14.8544 4.20291 14.5632L5.33307 13.4577C6.55198 12.2391 6.55198 10.2568 5.33307 9.03887ZM3.12339 12.186C2.60582 12.186 2.18577 11.766 2.18577 11.2486C2.18577 10.7312 2.60582 10.3112 3.12339 10.3112C3.64096 10.3112 4.06102 10.7312 4.06102 11.2486C4.06102 11.766 3.64096 12.186 3.12339 12.186Z" fill="#E50051"/>
</svg>
