<svg width="16" height="16" viewBox="0 0 16 16" fill="none" xmlns="http://www.w3.org/2000/svg">
<path d="M3.33333 8V12C3.33333 12.368 3.632 12.6667 4 12.6667C4.368 12.6667 4.66667 12.368 4.66667 12V8C4.66667 7.632 4.368 7.33333 4 7.33333C3.632 7.33333 3.33333 7.632 3.33333 8ZM8.28 4.478L6.23267 11.8307C6.116 12.2507 6.43133 12.6667 6.868 12.6667C7.16333 12.6667 7.422 12.4707 7.50267 12.1867L7.93133 10.6667H11.402L11.8307 12.1867C11.9107 12.4707 12.17 12.6667 12.4653 12.6667C12.9013 12.6667 13.2173 12.2507 13.1007 11.8307L11.04 4.42533C10.946 4.02 10.6793 3.67867 10.308 3.48867C9.92933 3.294 9.49467 3.282 9.082 3.45533C8.69067 3.61933 8.39067 4 8.27933 4.47867L8.28 4.478ZM8.30733 9.33333L9.59333 4.77667C9.61267 4.70067 9.72067 4.70067 9.73933 4.77667L11.0253 9.33333H8.30733ZM0.665999 6.66667C1.034 6.66667 1.33267 6.96533 1.33267 7.33333V12.6667C1.33267 13.7693 2.23 14.6667 3.33267 14.6667H12.6667C13.7693 14.6667 14.6667 13.7693 14.6667 12.6667V3.33333C14.6667 2.23067 13.7693 1.33333 12.6667 1.33333H8.07755C7.70955 1.33333 7.41088 1.03467 7.41088 0.666667C7.41088 0.298667 7.70955 0 8.07755 0H12.6667C14.5047 0 16 1.49533 16 3.33333V12.6667C16 14.5047 14.5047 16 12.6667 16H3.33333C1.49533 16 0 14.5047 0 12.6667V7.33333C0 6.96533 0.297999 6.66667 0.665999 6.66667ZM6.23267 3.63938L4.98733 4.16405L4.49067 5.40738C4.38333 5.67671 4.12266 5.85271 3.83266 5.85271C3.54266 5.85271 3.28267 5.67605 3.17467 5.40738L2.68067 4.17138L1.44467 3.67738C1.17533 3.57005 0.999331 3.30938 0.999331 3.01938C0.999331 2.72938 1.176 2.46938 1.44467 2.36138L2.68067 1.86738L3.17467 0.63138C3.28333 0.362713 3.544 0.186047 3.83333 0.186047C4.12267 0.186047 4.38333 0.362713 4.49133 0.63138L4.98267 1.86005L6.20933 2.32471C6.48 2.42738 6.66133 2.68471 6.66667 2.97405C6.672 3.26405 6.5 3.52738 6.23333 3.64005L6.23267 3.63938Z" fill="black"/>
</svg>
