<svg width="16" height="16" viewBox="0 0 16 16" fill="none" xmlns="http://www.w3.org/2000/svg">
<path d="M9.88891 8.74052C10.2749 8.58308 10.6959 8.80466 11.0234 8.99708L11.0293 9.00873C11.0773 9.03731 11.1305 9.06691 11.1863 9.09796C11.4835 9.26334 11.8551 9.47006 11.924 9.78425C11.9649 9.965 11.9298 10.1574 11.8597 10.3265C11.6258 10.9096 11.0293 11.277 10.4269 11.3936C9.89024 11.4909 9.444 11.3426 8.9578 11.1811C8.91951 11.1684 8.88097 11.1556 8.84212 11.1428C8.36844 10.9854 7.9123 10.758 7.4854 10.4956C6.63159 9.97667 5.89476 9.27696 5.30411 8.47812C5.12282 8.23322 4.95323 7.97666 4.80118 7.71427C4.59651 7.36442 4.41522 6.99707 4.32165 6.60641C4.28071 6.44314 4.25733 6.27404 4.25733 6.10495C4.24563 5.51603 4.4737 4.91545 4.94738 4.53061C5.22224 4.30903 5.62575 4.2099 5.92984 4.38483C6.22329 4.54909 6.39437 4.93479 6.53485 5.2515C6.55394 5.29454 6.57247 5.33631 6.59066 5.37608C6.71347 5.63265 6.85382 5.97667 6.80119 6.26821C6.75208 6.54024 6.55023 6.77165 6.37143 6.97666C6.3586 6.99137 6.34588 7.00595 6.33335 7.02039C6.2047 7.16617 6.18715 7.28862 6.29241 7.44606C6.9006 8.46063 7.74856 9.20116 8.85382 9.63847C9.00002 9.69679 9.11697 9.67929 9.21639 9.55684C9.27343 9.48576 9.331 9.39355 9.39177 9.29623C9.53039 9.07424 9.68563 8.82565 9.88891 8.74052Z" fill="#E50051"/>
<path fill-rule="evenodd" clip-rule="evenodd" d="M1.15205 11.7143L0 15.9942V16L4.30994 14.8455C5.46784 15.4694 6.76609 15.8018 8.07602 15.8018C12.4444 15.8018 16 12.2566 16 7.90088C16 3.54519 12.4444 0 8.07602 0C3.7076 0 0.157893 3.54519 0.157893 7.90088C0.157893 9.23032 0.502924 10.5423 1.15205 11.7143ZM4.79532 13.3994L4.52632 13.2361V13.2478L2.11696 13.8892L2.76023 11.4985L2.59649 11.2245C1.98246 10.2157 1.65497 9.06706 1.65497 7.90088C1.65497 4.36735 4.53216 1.49271 8.07602 1.49271C11.6199 1.49271 14.5029 4.36151 14.5029 7.89504C14.5029 11.4286 11.6199 14.3032 8.07602 14.3032C6.92397 14.3032 5.78947 13.9942 4.79532 13.3994Z" fill="#E50051"/>
</svg>
