<svg width="20" height="20" viewBox="0 0 20 20" fill="none" xmlns="http://www.w3.org/2000/svg">
<path d="M9.12594 8.20374L12.2724 9.91561C12.4111 9.98794 12.5437 10.1808 12.4111 10.2532L9.11991 11.8806C8.99332 11.953 8.55331 11.8565 8.55331 11.7119V8.37251C8.55331 8.22182 8.99936 8.1314 9.12594 8.20374Z" fill="white"/>
<path fill-rule="evenodd" clip-rule="evenodd" d="M0 10C0 4.4786 4.4786 0 10 0C15.5214 0 20 4.4786 20 10C20 15.5214 15.5214 20 10 20C4.4786 20 0 15.5214 0 10ZM13.8517 14.575C15.437 14.575 16.7209 13.2911 16.7209 11.7058V8.29415C16.7209 6.70886 15.437 5.42495 13.8517 5.42495H6.51597C4.93068 5.42495 3.64678 6.70886 3.64678 8.29415V11.7058C3.64678 13.2911 4.93068 14.575 6.51597 14.575H13.8517Z" fill="white"/>
</svg>
